<?xml version="1.0" encoding="UTF-8"?>
<!DOCTYPE svg PUBLIC "-//W3C//DTD SVG 1.1//EN" "http://www.w3.org/Graphics/SVG/1.1/DTD/svg11.dtd">
<svg xmlns="http://www.w3.org/2000/svg" version="1.1" width="500px" height="500px" style="shape-rendering:geometricPrecision; text-rendering:geometricPrecision; image-rendering:optimizeQuality; fill-rule:evenodd; clip-rule:evenodd" xmlns:xlink="http://www.w3.org/1999/xlink">
<g><path style="opacity:1" fill="#fefefe" d="M -0.5,-0.5 C 166.167,-0.5 332.833,-0.5 499.5,-0.5C 499.5,166.167 499.5,332.833 499.5,499.5C 332.833,499.5 166.167,499.5 -0.5,499.5C -0.5,332.833 -0.5,166.167 -0.5,-0.5 Z"/></g>
<g><path style="opacity:1" fill="#010101" d="M 478.5,167.5 C 477.462,174.653 476.796,181.986 476.5,189.5C 474.927,201.842 473.261,214.175 471.5,226.5C 470.232,228.905 469.565,231.572 469.5,234.5C 466.828,251.676 459.495,266.51 447.5,279C 438.732,285.422 428.899,288.589 418,288.5C 411.568,327.191 395.568,361.191 370,390.5C 336.755,423.709 296.421,440.376 249,440.5C 169.547,437.781 116.214,399.114 89,324.5C 85.0475,312.356 81.8808,300.023 79.5,287.5C 65.0415,288.687 53.2081,283.687 44,272.5C 36.1342,260.577 30.8009,247.577 28,233.5C 20.7687,195.16 17.7687,156.494 19,117.5C 20.3283,111.178 22.9949,105.511 27,100.5C 48.7805,77.3618 75.6138,64.5285 107.5,62C 121.122,60.558 134.455,61.8913 147.5,66C 151.899,67.9064 155.899,70.4064 159.5,73.5C 218.735,49.6978 278.068,49.6978 337.5,73.5C 341.962,70.4308 346.629,67.5974 351.5,65C 391.093,57.4491 427.093,65.4491 459.5,89C 469.244,96.7338 475.744,106.567 479,118.5C 479.044,134.829 478.877,151.162 478.5,167.5 Z"/></g>
<g><path style="opacity:1" fill="#fdfdfd" d="M 363.5,179.5 C 364.103,182.041 364.103,184.374 363.5,186.5C 352.438,176.316 339.438,172.816 324.5,176C 298.987,178.995 282.82,192.828 276,217.5C 271.56,240.977 273.226,263.977 281,286.5C 294.278,312.387 315.111,321.887 343.5,315C 370.545,308.457 386.878,291.623 392.5,264.5C 395.78,268.954 399.28,273.287 403,277.5C 399.007,325.654 378.507,365.154 341.5,396C 297.504,425.942 249.838,433.275 198.5,418C 162.839,405.665 135.672,383.165 117,350.5C 105.167,328.497 97.3335,305.163 93.5,280.5C 107.339,262.156 117.505,241.822 124,219.5C 128.294,204.992 131.96,190.326 135,175.5C 137.525,149.541 142.858,124.208 151,99.5C 152.105,96.0629 154.272,93.5629 157.5,92C 190.075,74.9025 224.742,67.9025 261.5,71C 291.632,71.6542 319.465,79.8209 345,95.5C 347.727,101.679 350.06,108.013 352,114.5C 356.914,135.987 360.748,157.654 363.5,179.5 Z"/></g>
<g><path style="opacity:1" fill="#b3b3b3" d="M 478.5,167.5 C 478.906,175.079 478.239,182.412 476.5,189.5C 476.796,181.986 477.462,174.653 478.5,167.5 Z"/></g>
<g><path style="opacity:1" fill="#777777" d="M 363.5,179.5 C 365.379,181.915 365.713,184.582 364.5,187.5C 363.893,187.376 363.56,187.043 363.5,186.5C 364.103,184.374 364.103,182.041 363.5,179.5 Z"/></g>
<g><path style="opacity:1" fill="#f7f7f7" d="M 319.5,215.5 C 341.876,215.039 355.709,225.705 361,247.5C 361.667,254.167 361.667,260.833 361,267.5C 356.969,284.195 346.803,295.028 330.5,300C 307.734,300.247 294.234,289.08 290,266.5C 286.717,245.575 293.884,229.408 311.5,218C 314.31,217.218 316.977,216.384 319.5,215.5 Z"/></g>
<g><path style="opacity:1" fill="#040404" d="M 165.5,229.5 C 181.984,227.809 191.818,235.142 195,251.5C 196.53,264.584 192.363,275.417 182.5,284C 169.03,289.4 159.197,285.567 153,272.5C 145.38,254.542 149.547,240.208 165.5,229.5 Z"/></g>
<g><path style="opacity:1" fill="#030303" d="M 318.5,229.5 C 332.801,227.978 342.301,233.978 347,247.5C 349.673,259.963 347.173,271.13 339.5,281C 322.366,291.03 310.532,286.53 304,267.5C 299.909,251.253 304.743,238.587 318.5,229.5 Z"/></g>
<g><path style="opacity:1" fill="#939393" d="M 471.5,226.5 C 471.706,229.495 471.04,232.162 469.5,234.5C 469.565,231.572 470.232,228.905 471.5,226.5 Z"/></g>
<g><path style="opacity:1" fill="#020202" d="M 238.5,289.5 C 246.561,289.179 254.561,289.679 262.5,291C 275.703,294.902 279.537,303.069 274,315.5C 269.821,321.838 263.987,325.504 256.5,326.5C 256.838,339.67 263.671,346.337 277,346.5C 283.059,345.86 288.892,344.36 294.5,342C 297.678,339.486 300.844,336.986 304,334.5C 307.968,337.301 311.468,340.634 314.5,344.5C 303.952,355.188 291.119,360.854 276,361.5C 276.021,372.716 273.688,383.383 269,393.5C 260.472,402.173 250.305,404.673 238.5,401C 230.305,397.121 225.472,390.621 224,381.5C 222.956,374.517 222.123,367.517 221.5,360.5C 206.21,361.183 193.543,355.85 183.5,344.5C 186.5,340.833 189.833,337.5 193.5,334.5C 205.343,346.235 219.009,349.068 234.5,343C 239.303,338.898 241.47,333.732 241,327.5C 229.678,324.514 222.845,317.347 220.5,306C 221.37,302.261 223.036,298.928 225.5,296C 229.647,293.26 233.98,291.093 238.5,289.5 Z"/></g>
</svg>
