<?xml version="1.0" encoding="UTF-8"?>
<!DOCTYPE svg PUBLIC "-//W3C//DTD SVG 1.1//EN" "http://www.w3.org/Graphics/SVG/1.1/DTD/svg11.dtd">
<svg xmlns="http://www.w3.org/2000/svg" version="1.1" width="512px" height="512px" style="shape-rendering:geometricPrecision; text-rendering:geometricPrecision; image-rendering:optimizeQuality; fill-rule:evenodd; clip-rule:evenodd" xmlns:xlink="http://www.w3.org/1999/xlink">
<g><path style="opacity:0.997" fill="#fee9c7" d="M 347.5,98.5 C 347.238,99.9778 347.571,101.311 348.5,102.5C 350.261,103.035 351.594,104.035 352.5,105.5C 359.193,118.397 365.027,131.731 370,145.5C 376.483,168.917 381.817,192.584 386,216.5C 390.147,235.126 396.814,252.793 406,269.5C 410.244,276.578 415.411,282.911 421.5,288.5C 416.972,318.58 407.139,346.913 392,373.5C 374.512,402.963 349.012,421.797 315.5,430C 305.196,432.272 294.863,434.106 284.5,435.5C 287.174,422.335 288.174,409.001 287.5,395.5C 293.052,393.693 298.385,391.193 303.5,388C 309.552,382.947 315.885,378.281 322.5,374C 326.663,371.179 328.163,367.345 327,362.5C 324.757,360.718 322.257,360.218 319.5,361C 310.833,365.667 302.167,370.333 293.5,375C 278.876,381.701 271.21,377.201 270.5,361.5C 292.617,360.561 302.117,349.228 299,327.5C 295.07,317.916 287.903,312.416 277.5,311C 268.833,310.333 260.167,310.333 251.5,311C 238.958,312.893 229.792,319.393 224,330.5C 222.047,344.757 227.88,354.257 241.5,359C 245.378,360.47 249.378,361.303 253.5,361.5C 254.607,370.646 250.607,375.313 241.5,375.5C 238.774,375.318 236.107,374.818 233.5,374C 225.5,369.333 217.5,364.667 209.5,360C 201.791,356.715 198.291,359.215 199,367.5C 201.463,370.965 204.296,374.131 207.5,377C 216.563,383.863 226.229,389.697 236.5,394.5C 237.905,408.669 240.238,422.669 243.5,436.5C 177.392,431.534 132.559,398.201 109,336.5C 105.202,325.305 102.036,313.971 99.5,302.5C 117.815,289.638 130.315,272.304 137,250.5C 140.621,237.35 143.288,224.017 145,210.5C 147.664,184.53 149.998,158.53 152,132.5C 153.475,125.576 155.641,118.91 158.5,112.5C 159.8,109.679 159.467,107.012 157.5,104.5C 185.468,86.8369 216.134,78.1702 249.5,78.5C 283.624,78.3912 316.291,85.0579 347.5,98.5 Z"/></g>
<g><path style="opacity:0.998" fill="#865b51" d="M 472.5,109.5 C 480.489,122.216 484.656,136.216 485,151.5C 486.059,182.516 483.392,213.183 477,243.5C 474.471,255.065 468.971,264.898 460.5,273C 448.476,279.72 437.143,278.72 426.5,270C 414.386,256.72 406.219,241.22 402,223.5C 394.554,190.591 385.221,158.258 374,126.5C 368.931,117.264 361.765,110.264 352.5,105.5C 351.594,104.035 350.261,103.035 348.5,102.5C 347.571,101.311 347.238,99.9778 347.5,98.5C 353.955,92.2697 361.621,88.103 370.5,86C 396.254,80.8947 421.588,82.5614 446.5,91C 456.817,94.9791 465.484,101.146 472.5,109.5 Z"/></g>
<g><path style="opacity:0.998" fill="#865b51" d="M 157.5,104.5 C 159.467,107.012 159.8,109.679 158.5,112.5C 152.281,117.562 147.781,123.895 145,131.5C 140.076,157.453 135.409,183.453 131,209.5C 127.247,228.426 120.914,246.426 112,263.5C 104.472,278.031 92.9722,287.865 77.5,293C 73.5,293.667 69.5,293.667 65.5,293C 56.3895,288.889 49.5562,282.389 45,273.5C 37.3905,258.733 32.7239,243.066 31,226.5C 27.794,200.881 27.1273,175.214 29,149.5C 29.8634,144.414 31.0301,139.414 32.5,134.5C 33.8592,130.118 36.0259,126.118 39,122.5C 65.0177,96.9382 96.1844,86.1049 132.5,90C 142.724,91.7721 151.057,96.6055 157.5,104.5 Z"/></g>
<g><path style="opacity:0.983" fill="#d17756" d="M 352.5,105.5 C 361.765,110.264 368.931,117.264 374,126.5C 385.221,158.258 394.554,190.591 402,223.5C 406.219,241.22 414.386,256.72 426.5,270C 437.143,278.72 448.476,279.72 460.5,273C 468.971,264.898 474.471,255.065 477,243.5C 483.392,213.183 486.059,182.516 485,151.5C 484.656,136.216 480.489,122.216 472.5,109.5C 479.229,114.247 484.062,120.58 487,128.5C 491.074,139.131 493.408,150.131 494,161.5C 494.784,194.525 491.784,227.192 485,259.5C 474.811,293.175 453.644,302.842 421.5,288.5C 415.411,282.911 410.244,276.578 406,269.5C 396.814,252.793 390.147,235.126 386,216.5C 381.817,192.584 376.483,168.917 370,145.5C 365.027,131.731 359.193,118.397 352.5,105.5 Z"/></g>
<g><path style="opacity:0.983" fill="#d17856" d="M 158.5,112.5 C 155.641,118.91 153.475,125.576 152,132.5C 149.998,158.53 147.664,184.53 145,210.5C 143.288,224.017 140.621,237.35 137,250.5C 130.315,272.304 117.815,289.638 99.5,302.5C 75.7082,312.174 55.5415,307.174 39,287.5C 27.1282,269.375 20.7949,249.375 20,227.5C 17.2435,202.323 18.2435,177.323 23,152.5C 24.3686,145.424 27.5353,139.424 32.5,134.5C 31.0301,139.414 29.8634,144.414 29,149.5C 27.1273,175.214 27.794,200.881 31,226.5C 32.7239,243.066 37.3905,258.733 45,273.5C 49.5562,282.389 56.3895,288.889 65.5,293C 69.5,293.667 73.5,293.667 77.5,293C 92.9722,287.865 104.472,278.031 112,263.5C 120.914,246.426 127.247,228.426 131,209.5C 135.409,183.453 140.076,157.453 145,131.5C 147.781,123.895 152.281,117.562 158.5,112.5 Z"/></g>
<g><path style="opacity:1" fill="#d17856" d="M 328.5,206.5 C 359.327,206.507 378.494,221.507 386,251.5C 389.329,267.863 387.329,283.529 380,298.5C 373.322,309.167 363.822,316 351.5,319C 324.845,324.804 305.011,315.971 292,292.5C 283.639,267.897 286.639,244.897 301,223.5C 308.575,215.059 317.742,209.392 328.5,206.5 Z"/></g>
<g><path style="opacity:1" fill="#313130" d="M 173.5,242.5 C 195.171,240.338 204.338,250.004 201,271.5C 198.862,288.804 189.362,295.637 172.5,292C 161.613,283.292 158.113,272.126 162,258.5C 163.828,251.537 167.662,246.204 173.5,242.5 Z"/></g>
<g><path style="opacity:1" fill="#312f2f" d="M 333.5,241.5 C 350.485,240.651 358.819,248.817 358.5,266C 359.085,286.425 349.419,295.091 329.5,292C 322.541,288.278 318.374,282.445 317,274.5C 313.534,258.764 319.034,247.764 333.5,241.5 Z"/></g>
<g><path style="opacity:1" fill="#303030" d="M 287.5,395.5 C 277.568,397.136 269.402,394.136 263,386.5C 255.973,394.896 247.14,397.563 236.5,394.5C 226.229,389.697 216.563,383.863 207.5,377C 204.296,374.131 201.463,370.965 199,367.5C 198.291,359.215 201.791,356.715 209.5,360C 217.5,364.667 225.5,369.333 233.5,374C 236.107,374.818 238.774,375.318 241.5,375.5C 250.607,375.313 254.607,370.646 253.5,361.5C 249.378,361.303 245.378,360.47 241.5,359C 227.88,354.257 222.047,344.757 224,330.5C 229.792,319.393 238.958,312.893 251.5,311C 260.167,310.333 268.833,310.333 277.5,311C 287.903,312.416 295.07,317.916 299,327.5C 302.117,349.228 292.617,360.561 270.5,361.5C 271.21,377.201 278.876,381.701 293.5,375C 302.167,370.333 310.833,365.667 319.5,361C 322.257,360.218 324.757,360.718 327,362.5C 328.163,367.345 326.663,371.179 322.5,374C 315.885,378.281 309.552,382.947 303.5,388C 298.385,391.193 293.052,393.693 287.5,395.5 Z"/></g>
<g><path style="opacity:0.992" fill="#e84c8c" d="M 287.5,395.5 C 288.174,409.001 287.174,422.335 284.5,435.5C 279.829,443.76 272.662,448.094 263,448.5C 253.989,448.418 247.489,444.418 243.5,436.5C 240.238,422.669 237.905,408.669 236.5,394.5C 247.14,397.563 255.973,394.896 263,386.5C 269.402,394.136 277.568,397.136 287.5,395.5 Z"/></g>
<g><path style="opacity:1" fill="#ee84b0" d="M 260.5,402.5 C 263.044,402.104 265.211,402.771 267,404.5C 267.667,412.833 267.667,421.167 267,429.5C 265.776,432.473 263.776,433.14 261,431.5C 257.894,421.812 257.727,412.145 260.5,402.5 Z"/></g>
</svg>
