<?xml version="1.0" encoding="UTF-8"?>
<!DOCTYPE svg PUBLIC "-//W3C//DTD SVG 1.1//EN" "http://www.w3.org/Graphics/SVG/1.1/DTD/svg11.dtd">
<svg xmlns="http://www.w3.org/2000/svg" version="1.1" width="1024px" height="1024px" style="shape-rendering:geometricPrecision; text-rendering:geometricPrecision; image-rendering:optimizeQuality; fill-rule:evenodd; clip-rule:evenodd" xmlns:xlink="http://www.w3.org/1999/xlink">
<g><path style="opacity:0.996" fill="#fed1b0" d="M 518.5,65.5 C 523.9,69.5896 528.4,74.5896 532,80.5C 556.641,153.762 583.641,226.095 613,297.5C 620.698,314.928 630.864,330.595 643.5,344.5C 641.729,357.354 639.063,370.02 635.5,382.5C 667.493,387.001 698.16,396.168 727.5,410C 749.131,420.963 766.298,436.797 779,457.5C 786.333,470.833 793.667,484.167 801,497.5C 817.25,519.582 838.083,525.415 863.5,515C 870.436,511.06 877.103,506.727 883.5,502C 896.8,490.368 909.8,478.368 922.5,466C 932.525,460.14 937.858,463.14 938.5,475C 932.503,518.019 912.169,552.353 877.5,578C 857.327,590.378 835.327,596.211 811.5,595.5C 811.591,605.196 811.091,614.863 810,624.5C 804.614,644.146 801.614,664.146 801,684.5C 799.643,719.273 800.977,753.94 805,788.5C 809.602,840.147 787.436,874.314 738.5,891C 720.56,895.674 702.893,894.674 685.5,888C 682.367,887.14 679.7,885.64 677.5,883.5C 679.199,883.66 680.866,883.494 682.5,883C 684.068,880.696 685.235,878.196 686,875.5C 687.156,867.551 687.822,859.551 688,851.5C 688.937,846.587 690.103,841.754 691.5,837C 690.401,830.938 686.735,828.604 680.5,830C 671.886,835.797 667.386,843.963 667,854.5C 665.121,864.074 666.954,872.741 672.5,880.5C 658.01,871.845 652.51,859.178 656,842.5C 657.136,838.757 658.47,835.09 660,831.5C 665.748,821.003 671.748,810.67 678,800.5C 679.767,770.855 679.934,741.189 678.5,711.5C 666.658,720.26 653.992,727.76 640.5,734C 624.116,740.795 607.449,746.795 590.5,752C 589.54,753.419 588.707,754.919 588,756.5C 579.673,791.795 573.506,827.462 569.5,863.5C 572.933,884.501 576.433,905.501 580,926.5C 583.56,944.452 578.726,959.619 565.5,972C 540.903,991.438 513.236,997.605 482.5,990.5C 487.221,988.434 490.055,984.767 491,979.5C 491.667,966.833 491.667,954.167 491,941.5C 489.102,931.97 483.602,928.803 474.5,932C 472.064,934.707 470.564,937.873 470,941.5C 469.333,954.5 469.333,967.5 470,980.5C 470.133,983.404 471.3,985.738 473.5,987.5C 456.782,983.934 442.616,975.934 431,963.5C 429.725,961.283 428.725,958.949 428,956.5C 426.495,947.887 426.161,939.22 427,930.5C 428.675,917.452 430.675,904.452 433,891.5C 433.684,853.159 433.35,814.825 432,776.5C 431.846,760.204 427.512,745.204 419,731.5C 409.309,719.952 399.309,719.618 389,730.5C 385.683,736.117 383.35,742.117 382,748.5C 379.671,769.429 378.337,790.429 378,811.5C 377.616,833.169 377.116,854.836 376.5,876.5C 381.328,901.85 375.828,924.517 360,944.5C 340.603,961.803 317.77,970.137 291.5,969.5C 273.173,969.739 256.173,965.239 240.5,956C 224.716,941.656 218.216,923.822 221,902.5C 222.229,897.471 224.229,892.804 227,888.5C 232.522,880.799 238.522,873.466 245,866.5C 246.586,864.33 247.92,861.996 249,859.5C 250.654,845.904 251.488,832.237 251.5,818.5C 251.024,788.82 250.191,759.153 249,729.5C 236.78,687.065 227.113,644.065 220,600.5C 217.339,567.939 220.839,536.106 230.5,505C 197.922,470.37 173.589,430.537 157.5,385.5C 179.203,366.466 194.703,343.132 204,315.5C 214.291,285.953 221.291,255.619 225,224.5C 227.775,194.869 230.109,165.202 232,135.5C 234.215,119.926 237.381,104.593 241.5,89.5C 328.762,25.7143 421.095,17.7143 518.5,65.5 Z"/></g>
<g><path style="opacity:0.997" fill="#865b52" d="M 643.5,344.5 C 630.864,330.595 620.698,314.928 613,297.5C 583.641,226.095 556.641,153.762 532,80.5C 528.4,74.5896 523.9,69.5896 518.5,65.5C 529.448,52.5117 543.448,44.345 560.5,41C 598.929,34.3723 636.596,37.3723 673.5,50C 717.743,66.2724 740.577,98.1058 742,145.5C 747.13,187.266 746.463,228.932 740,270.5C 736.319,293.553 728.319,314.886 716,334.5C 698.991,352.509 678.491,358.009 654.5,351C 650.806,348.822 647.139,346.655 643.5,344.5 Z"/></g>
<g><path style="opacity:0.997" fill="#865b52" d="M 241.5,89.5 C 237.381,104.593 234.215,119.926 232,135.5C 230.109,165.202 227.775,194.869 225,224.5C 221.291,255.619 214.291,285.953 204,315.5C 194.703,343.132 179.203,366.466 157.5,385.5C 135.077,398.504 112.41,398.67 89.5,386C 70.0796,372.365 56.5796,354.199 49,331.5C 36.4989,291.826 30.6656,251.159 31.5,209.5C 28.935,146.622 55.935,101.789 112.5,75C 145.075,63.8806 178.075,62.5473 211.5,71C 223.681,73.9098 233.681,80.0765 241.5,89.5 Z"/></g>
<g><path style="opacity:1" fill="#d17856" d="M 495.5,220.5 C 557.791,217.001 590.124,246.501 592.5,309C 592.727,332.941 586.227,354.775 573,374.5C 556.733,392.286 536.566,399.452 512.5,396C 483.287,391.796 463.12,375.963 452,348.5C 440.718,319.799 439.718,290.799 449,261.5C 457.353,239.595 472.853,225.929 495.5,220.5 Z"/></g>
<g><path style="opacity:1" fill="#070401" d="M 509.5,272.5 C 531.377,269.515 545.544,278.515 552,299.5C 555.136,316.845 551.303,332.345 540.5,346C 527.623,355.221 514.289,355.888 500.5,348C 489.235,337.556 484.235,324.556 485.5,309C 484.398,290.674 492.398,278.507 509.5,272.5 Z"/></g>
<g><path style="opacity:1" fill="#080502" d="M 273.5,285.5 C 297.636,282.839 312.469,293.172 318,316.5C 318.918,328.661 316.918,340.327 312,351.5C 303.361,365.828 290.861,370.995 274.5,367C 260.415,360.363 252.581,349.196 251,333.5C 245.997,311.239 253.497,295.239 273.5,285.5 Z"/></g>
<g><path style="opacity:1" fill="#080502" d="M 400.5,382.5 C 410.839,382.334 421.172,382.5 431.5,383C 467.017,388.122 478.517,407.289 466,440.5C 455.013,452.076 441.513,458.409 425.5,459.5C 424.99,465.072 425.823,470.405 428,475.5C 432.295,480.895 437.795,482.729 444.5,481C 448.385,480.261 452.052,478.927 455.5,477C 466.5,468.667 477.5,460.333 488.5,452C 491.833,450.333 495.167,448.667 498.5,447C 509.497,444.772 513.997,449.272 512,460.5C 510.254,464.327 508.254,467.993 506,471.5C 489.612,488.231 470.779,501.397 449.5,511C 437.928,513.032 428.261,509.699 420.5,501C 417.298,499.517 413.964,499.183 410.5,500C 393.707,515.544 375.374,517.544 355.5,506C 348.985,501.241 342.652,496.241 336.5,491C 328.828,484.47 322.995,476.637 319,467.5C 317.025,454.231 322.525,449.398 335.5,453C 343.87,461.038 352.536,468.705 361.5,476C 383.108,490.692 395.108,485.192 397.5,459.5C 381.495,458.446 367.995,452.112 357,440.5C 347.592,423.876 350.092,409.376 364.5,397C 375.573,389.622 387.573,384.789 400.5,382.5 Z"/></g>
<g><path style="opacity:1" fill="#d27856" d="M 625.5,406.5 C 680.679,405.839 724.179,427.839 756,472.5C 769.931,499.184 772.265,526.851 763,555.5C 750.108,582.038 728.941,596.871 699.5,600C 654.703,603.352 621.203,585.519 599,546.5C 589.79,529.257 583.29,511.091 579.5,492C 586.373,482.424 592.873,472.591 599,462.5C 608.12,443.928 616.954,425.261 625.5,406.5 Z"/></g>
<g><path style="opacity:1" fill="#d27856" d="M 313.5,562.5 C 335.392,572.892 358.392,579.725 382.5,583C 403.713,584.612 424.713,583.279 445.5,579C 459.988,575.295 474.321,571.129 488.5,566.5C 491.567,593.3 488.4,619.3 479,644.5C 459.837,684.966 428.004,702.133 383.5,696C 350.649,687.484 329.149,666.984 319,634.5C 310.132,611.011 308.298,587.011 313.5,562.5 Z"/></g>
<g><path style="opacity:1" fill="#d27856" d="M 567.5,584.5 C 585.401,583.195 597.568,590.861 604,607.5C 606.767,626.719 598.933,639.219 580.5,645C 554.558,645.386 542.725,632.553 545,606.5C 549.166,595.683 556.666,588.35 567.5,584.5 Z"/></g>
<g><path style="opacity:1" fill="#d37a58" d="M 677.5,883.5 C 675.326,883.25 673.659,882.25 672.5,880.5C 666.954,872.741 665.121,864.074 667,854.5C 667.386,843.963 671.886,835.797 680.5,830C 686.735,828.604 690.401,830.938 691.5,837C 690.103,841.754 688.937,846.587 688,851.5C 687.822,859.551 687.156,867.551 686,875.5C 685.235,878.196 684.068,880.696 682.5,883C 680.866,883.494 679.199,883.66 677.5,883.5 Z"/></g>
<g><path style="opacity:1" fill="#d27957" d="M 721.5,839.5 C 724.85,839.335 728.183,839.502 731.5,840C 734.203,840.865 735.536,842.699 735.5,845.5C 731.913,859.318 729.413,873.318 728,887.5C 720.533,894.971 714.866,893.637 711,883.5C 710.573,872.389 711.573,861.389 714,850.5C 715.549,846.13 718.049,842.463 721.5,839.5 Z"/></g>
<g><path style="opacity:1" fill="#d27957" d="M 249.5,900.5 C 257.533,899.652 261.533,903.152 261.5,911C 260.458,917.924 258.958,924.757 257,931.5C 256.849,938.896 256.182,946.229 255,953.5C 252.469,957.79 248.969,958.623 244.5,956C 242.383,954.269 240.883,952.102 240,949.5C 236.286,935.962 236.953,922.628 242,909.5C 243.642,905.7 246.142,902.7 249.5,900.5 Z"/></g>
<g><path style="opacity:1" fill="#d27957" d="M 298.5,907.5 C 305.74,907.078 309.407,910.412 309.5,917.5C 307.016,931.031 305.85,944.698 306,958.5C 304.254,966.956 299.421,969.456 291.5,966C 289.959,964.421 288.792,962.587 288,960.5C 285.693,946.401 286.027,932.401 289,918.5C 290.798,913.518 293.965,909.851 298.5,907.5 Z"/></g>
<g><path style="opacity:1" fill="#d27957" d="M 530.5,927.5 C 538.244,926.406 542.744,929.74 544,937.5C 544.903,950.881 544.57,964.214 543,977.5C 541.361,985.739 536.528,988.406 528.5,985.5C 525.791,982.027 524.291,978.027 524,973.5C 523.076,960.11 523.409,946.777 525,933.5C 526.36,930.977 528.193,928.977 530.5,927.5 Z"/></g>
<g><path style="opacity:0.998" fill="#d27957" d="M 482.5,990.5 C 478.919,990.862 475.919,989.862 473.5,987.5C 471.3,985.738 470.133,983.404 470,980.5C 469.333,967.5 469.333,954.5 470,941.5C 470.564,937.873 472.064,934.707 474.5,932C 483.602,928.803 489.102,931.97 491,941.5C 491.667,954.167 491.667,966.833 491,979.5C 490.055,984.767 487.221,988.434 482.5,990.5 Z"/></g>
</svg>
